# ProBuilder 5.2.0
# https://unity3d.com/unity/features/worldbuilding/probuilder
# 12/11/2023 7:04:04 PM

mtllib ./BigCube.mtl
o BigCube

g Cube
v 0 0 3
v -3 0 3
v 0 3 3
v -3 3 3
v -3 0 0
v -3 3 0
v 0 0 0
v 0 3 0

vt 0 0
vt -3 0
vt 0 3
vt -3 3
vt 3 0
vt 3 3

vn 0 0 1
vn -1 0 0
vn 0 0 -1
vn 1 0 0
vn 0 1 0
vn 0 -1 0

usemtl ProBuilder_Default_URP
f 3/3/1 4/4/1 2/2/1 1/1/1
f 4/6/2 6/3/2 5/1/2 2/5/2
f 6/6/3 8/3/3 7/1/3 5/5/3
f 8/3/4 3/4/4 1/2/4 7/1/4
f 8/1/5 6/5/5 4/6/5 3/3/5
f 1/3/6 2/4/6 5/2/6 7/1/6

